<?xml version="1.0" standalone="no"?>
<!DOCTYPE svg PUBLIC "-//W3C//DTD SVG 20010904//EN"
 "http://www.w3.org/TR/2001/REC-SVG-20010904/DTD/svg10.dtd">
<svg version="1.0" xmlns="http://www.w3.org/2000/svg"
 width="500.000000pt" height="500.000000pt" viewBox="0 0 500.000000 500.000000"
 preserveAspectRatio="xMidYMid meet">

<g transform="translate(0.000000,500.000000) scale(0.100000,-0.100000)"
fill="#000000" stroke="none">
<path d="M2370 3421 c-119 -38 -202 -101 -258 -194 -52 -86 -65 -152 -59 -292
3 -66 8 -130 12 -142 7 -23 7 -23 -114 -23 l-121 0 0 109 c0 138 -12 199 -55
288 -59 120 -176 210 -312 238 -89 19 -573 21 -591 3 -9 -9 -12 -222 -12 -895
l0 -883 26 -10 c14 -6 79 -10 144 -10 65 0 130 4 144 10 l26 10 0 215 0 215
101 0 c171 0 294 43 389 136 l36 34 435 0 c403 0 437 -1 451 -17 55 -63 71
-187 32 -239 -32 -44 -68 -66 -115 -71 -99 -10 -159 63 -159 194 0 61 -3 74
-19 83 -26 13 -256 13 -282 0 -17 -10 -19 -22 -19 -114 0 -162 40 -267 138
-358 87 -82 190 -118 335 -118 241 0 428 152 468 378 10 58 1 200 -16 245 -7
16 3 17 124 17 l131 0 0 -97 c0 -54 5 -129 10 -167 26 -177 146 -306 335 -361
76 -23 257 -16 325 11 68 27 141 76 179 119 43 49 88 144 101 214 13 68 13
288 0 296 -5 3 -750 5 -1655 5 l-1645 0 0 250 0 250 1625 0 c1077 0 1625 3
1625 10 0 6 -98 10 -275 10 l-275 0 0 123 c0 139 12 176 69 214 44 30 108 31
145 2 45 -35 58 -74 64 -188 3 -61 10 -109 16 -113 6 -4 72 -8 147 -8 110 0
139 3 149 15 21 25 7 265 -19 340 -65 184 -214 284 -421 285 -190 0 -331 -66
-421 -197 -57 -82 -71 -142 -77 -315 l-4 -158 -383 0 -383 0 -28 33 c-42 50
-64 106 -64 167 0 106 58 165 154 157 85 -7 126 -75 126 -204 0 -51 3 -64 19
-73 25 -13 241 -13 275 0 25 9 26 13 26 82 0 253 -100 414 -299 484 -84 30
-218 32 -301 5z m-953 -347 c50 -37 63 -77 63 -196 l0 -108 -140 0 -140 0 0
166 0 166 94 -4 c76 -2 100 -7 123 -24z m2443 -955 c0 -96 -3 -117 -22 -150
-50 -89 -169 -92 -230 -7 -20 29 -23 47 -27 151 l-3 117 141 0 141 0 0 -111z"/>
<path d="M1370 2625 c0 -30 5 -55 10 -55 6 0 10 7 10 15 0 8 6 15 14 15 18 0
30 33 21 60 -4 13 -15 20 -31 20 -22 0 -24 -3 -24 -55z m27 3 c-3 -7 -5 -2 -5
12 0 14 2 19 5 13 2 -7 2 -19 0 -25z"/>
<path d="M1520 2626 c0 -31 5 -56 10 -56 6 0 10 9 10 20 0 11 5 20 10 20 6 0
10 -9 10 -20 0 -11 4 -20 9 -20 5 0 9 24 8 53 -2 49 -4 52 -29 55 -28 3 -28 2
-28 -52z m40 19 c0 -8 -4 -15 -10 -15 -5 0 -10 7 -10 15 0 8 5 15 10 15 6 0
10 -7 10 -15z"/>
<path d="M1676 2664 c-9 -22 -7 -67 3 -82 5 -8 17 -12 27 -10 15 2 20 14 22
56 3 49 2 52 -21 52 -14 0 -28 -7 -31 -16z m31 -56 c-2 -13 -4 -5 -4 17 -1 22
1 32 4 23 2 -10 2 -28 0 -40z"/>
<path d="M1850 2635 c0 -36 -4 -45 -17 -45 -13 0 -14 -3 -6 -11 24 -24 43 -2
43 51 0 27 -4 50 -10 50 -5 0 -10 -20 -10 -45z"/>
<path d="M1970 2625 c0 -52 1 -55 25 -55 14 0 25 5 25 10 0 6 -7 10 -15 10
-21 0 -19 30 3 30 16 1 16 1 0 14 -22 16 -23 26 -3 26 8 0 15 5 15 10 0 6 -11
10 -25 10 -24 0 -25 -3 -25 -55z"/>
<path d="M2124 2666 c-3 -8 -4 -31 -2 -52 2 -31 7 -40 24 -42 13 -2 24 4 28
14 9 23 0 30 -19 14 -13 -11 -15 -7 -15 25 0 32 2 36 15 25 13 -10 15 -9 15 9
0 24 -37 30 -46 7z"/>
<path d="M2268 2668 c7 -7 12 -31 12 -55 0 -24 5 -43 10 -43 6 0 10 20 10 45
0 25 5 45 10 45 6 0 10 5 10 10 0 6 -14 10 -32 10 -25 0 -29 -3 -20 -12z"/>
<path d="M2534 2665 c-4 -10 3 -26 16 -40 13 -14 20 -28 16 -32 -4 -4 -11 -1
-15 6 -7 10 -10 10 -16 1 -10 -16 9 -33 31 -28 27 5 29 33 5 57 -27 27 -26 34
0 26 15 -5 20 -3 17 6 -7 21 -47 23 -54 4z"/>
<path d="M2680 2638 c0 -52 11 -71 36 -66 15 2 20 14 22 56 2 32 -1 52 -7 52
-6 0 -11 -20 -11 -46 0 -27 -4 -43 -10 -39 -5 3 -10 24 -10 46 0 21 -4 39 -10
39 -5 0 -10 -19 -10 -42z"/>
<path d="M2840 2626 c0 -31 5 -56 10 -56 6 0 10 6 10 14 0 7 9 16 21 19 16 4
20 12 17 39 -2 28 -7 34 -30 36 -28 3 -28 2 -28 -52z m40 14 c0 -11 -4 -20
-10 -20 -5 0 -10 9 -10 20 0 11 5 20 10 20 6 0 10 -9 10 -20z"/>
<path d="M2990 2626 c0 -31 2 -56 4 -56 3 0 17 11 31 24 36 34 32 80 -7 84
-28 3 -28 2 -28 -52z m40 14 c0 -11 -4 -20 -10 -20 -5 0 -10 9 -10 20 0 11 5
20 10 20 6 0 10 -9 10 -20z"/>
<path d="M3146 2664 c-9 -22 -7 -67 3 -82 5 -8 17 -12 27 -10 15 2 20 14 22
56 3 49 2 52 -21 52 -14 0 -28 -7 -31 -16z m31 -56 c-2 -13 -4 -5 -4 17 -1 22
1 32 4 23 2 -10 2 -28 0 -40z"/>
<path d="M3300 2626 c0 -56 15 -77 23 -33 l4 22 8 -22 c13 -40 24 -25 22 30
-2 49 -4 52 -29 55 -28 3 -28 2 -28 -52z m40 25 c0 -6 -4 -13 -10 -16 -5 -3
-10 1 -10 9 0 9 5 16 10 16 6 0 10 -4 10 -9z"/>
<path d="M3450 2670 c0 -5 5 -10 10 -10 6 0 10 -20 10 -45 0 -25 5 -45 10 -45
6 0 10 19 10 43 0 24 5 48 12 55 9 9 5 12 -20 12 -18 0 -32 -4 -32 -10z"/>
<path d="M2034 2426 c-3 -8 -4 -31 -2 -52 2 -32 7 -40 26 -42 22 -3 42 22 27
36 -4 4 -10 1 -12 -5 -9 -26 -23 -12 -23 22 0 34 14 48 23 23 2 -7 8 -10 12
-6 4 4 5 14 2 23 -8 19 -46 20 -53 1z"/>
<path d="M2180 2385 c0 -54 0 -55 30 -55 17 0 30 5 30 10 0 6 -9 10 -20 10
-23 0 -27 18 -5 26 8 4 15 10 15 15 0 5 -7 9 -15 9 -8 0 -15 5 -15 10 0 6 6
10 14 10 8 0 18 5 21 10 4 6 -7 10 -24 10 -31 0 -31 0 -31 -55z"/>
<path d="M2337 2434 c-11 -11 -8 -104 3 -104 6 0 10 20 10 45 0 25 5 45 10 45
6 0 10 -20 10 -45 0 -25 5 -45 11 -45 6 0 9 21 7 53 -3 44 -6 52 -23 55 -12 2
-24 0 -28 -4z"/>
<path d="M2480 2430 c0 -5 5 -10 10 -10 6 0 10 -20 10 -45 0 -25 5 -45 10 -45
6 0 10 19 10 43 0 24 5 48 12 55 9 9 5 12 -20 12 -18 0 -32 -4 -32 -10z"/>
<path d="M2630 2385 c0 -52 1 -55 25 -55 14 0 25 5 25 10 0 6 -7 10 -15 10
-21 0 -19 30 3 30 16 1 16 1 0 14 -22 16 -23 26 -3 26 8 0 15 5 15 10 0 6 -11
10 -25 10 -24 0 -25 -3 -25 -55z"/>
<path d="M2770 2386 c0 -31 5 -56 10 -56 6 0 10 9 10 20 0 11 5 20 10 20 6 0
10 -9 10 -20 0 -11 5 -20 11 -20 6 0 9 21 7 53 -3 48 -5 52 -30 55 -28 3 -28
2 -28 -52z m40 19 c0 -8 -4 -15 -10 -15 -5 0 -10 7 -10 15 0 8 5 15 10 15 6 0
10 -7 10 -15z"/>
</g>
</svg>
